<svg width="682" height="200" viewBox="0 0 682 200" fill="none" xmlns="http://www.w3.org/2000/svg">
<path d="M3 9L12 2L21 9V20C21 20.5304 20.7893 21.0391 20.4142 21.4142C20.0391 21.7893 19.5304 22 19 22H5C4.46957 22 3.96086 21.7893 3.58579 21.4142C3.21071 21.0391 3 20.5304 3 20V9Z" stroke="#252525" stroke-width="2" stroke-linecap="round" stroke-linejoin="round"/>
<path d="M9 22V12H15V22" stroke="#252525" stroke-width="2" stroke-linecap="round" stroke-linejoin="round"/>
<path d="M106 22C111.523 22 116 17.5228 116 12C116 6.47715 111.523 2 106 2C100.477 2 96 6.47715 96 12C96 17.5228 100.477 22 106 22Z" stroke="#252525" stroke-width="2" stroke-linecap="round" stroke-linejoin="round"/>
<path d="M103.09 8.99959C103.325 8.33126 103.789 7.7677 104.4 7.40873C105.011 7.04975 105.729 6.91853 106.427 7.0383C107.125 7.15808 107.759 7.52112 108.215 8.06312C108.671 8.60512 108.921 9.29112 108.92 9.99959C108.92 11.9996 105.92 12.9996 105.92 12.9996" stroke="#252525" stroke-width="2" stroke-linecap="round" stroke-linejoin="round"/>
<path d="M106 16V16.5" stroke="#252525" stroke-width="2" stroke-linecap="round" stroke-linejoin="round"/>
<path d="M206 184C207.657 184 209 182.657 209 181C209 179.343 207.657 178 206 178C204.343 178 203 179.343 203 181C203 182.657 204.343 184 206 184Z" stroke="#252525" stroke-width="2" stroke-linecap="round" stroke-linejoin="round"/>
<path d="M194 191C195.657 191 197 189.657 197 188C197 186.343 195.657 185 194 185C192.343 185 191 186.343 191 188C191 189.657 192.343 191 194 191Z" stroke="#252525" stroke-width="2" stroke-linecap="round" stroke-linejoin="round"/>
<path d="M206 198C207.657 198 209 196.657 209 195C209 193.343 207.657 192 206 192C204.343 192 203 193.343 203 195C203 196.657 204.343 198 206 198Z" stroke="#252525" stroke-width="2" stroke-linecap="round" stroke-linejoin="round"/>
<path d="M196.59 189.51L203.42 193.49" stroke="#252525" stroke-width="2" stroke-linecap="round" stroke-linejoin="round"/>
<path d="M203.41 182.51L196.59 186.49" stroke="#252525" stroke-width="2" stroke-linecap="round" stroke-linejoin="round"/>
<path d="M303 187.5C303.003 188.82 302.695 190.122 302.1 191.3C301.394 192.712 300.31 193.899 298.967 194.729C297.625 195.559 296.078 195.999 294.5 196C293.18 196.003 291.878 195.695 290.7 195.1L285 197L286.9 191.3C286.305 190.122 285.997 188.82 286 187.5C286.001 185.922 286.441 184.375 287.271 183.033C288.101 181.69 289.288 180.606 290.7 179.9C291.878 179.305 293.18 178.997 294.5 179H295C297.084 179.115 299.053 179.995 300.529 181.471C302.005 182.947 302.885 184.916 303 187V187.5Z" stroke="#252525" stroke-width="2" stroke-linecap="round" stroke-linejoin="round"/>
<path d="M1 182V198L8 194L16 198L23 194V178L16 182L8 178L1 182Z" stroke="#252525" stroke-width="2" stroke-linecap="round" stroke-linejoin="round"/>
<path d="M8 178V194" stroke="#252525" stroke-width="2" stroke-linecap="round" stroke-linejoin="round"/>
<path d="M16 182V198" stroke="#252525" stroke-width="2" stroke-linecap="round" stroke-linejoin="round"/>
<path d="M488 108V98" stroke="#252525" stroke-width="2" stroke-linecap="round" stroke-linejoin="round"/>
<path d="M482 108V92" stroke="#252525" stroke-width="2" stroke-linecap="round" stroke-linejoin="round"/>
<path d="M476 108V102" stroke="#252525" stroke-width="2" stroke-linecap="round" stroke-linejoin="round"/>
<path d="M397 180H379C377.895 180 377 180.895 377 182V194C377 195.105 377.895 196 379 196H397C398.105 196 399 195.105 399 194V182C399 180.895 398.105 180 397 180Z" stroke="#252525" stroke-width="2" stroke-linecap="round" stroke-linejoin="round"/>
<path d="M377 186H399" stroke="#252525" stroke-width="2" stroke-linecap="round" stroke-linejoin="round"/>
<path d="M585 10C585 17 576 23 576 23C576 23 567 17 567 10C567 7.61305 567.948 5.32387 569.636 3.63604C571.324 1.94821 573.613 1 576 1C578.387 1 580.676 1.94821 582.364 3.63604C584.052 5.32387 585 7.61305 585 10Z" stroke="#252525" stroke-width="2" stroke-linecap="round" stroke-linejoin="round"/>
<path d="M576 13C577.657 13 579 11.6569 579 10C579 8.34315 577.657 7 576 7C574.343 7 573 8.34315 573 10C573 11.6569 574.343 13 576 13Z" stroke="#252525" stroke-width="2" stroke-linecap="round" stroke-linejoin="round"/>
<path d="M292.29 3.8602L283.82 18.0002C283.645 18.3026 283.553 18.6455 283.552 18.9947C283.551 19.3439 283.641 19.6873 283.814 19.9907C283.987 20.2941 284.237 20.547 284.537 20.7241C284.838 20.9012 285.181 20.9964 285.53 21.0002H302.47C302.819 20.9964 303.161 20.9012 303.462 20.7241C303.763 20.547 304.012 20.2941 304.185 19.9907C304.358 19.6873 304.449 19.3439 304.448 18.9947C304.447 18.6455 304.354 18.3026 304.18 18.0002L295.71 3.8602C295.532 3.56631 295.28 3.32332 294.981 3.15469C294.681 2.98605 294.344 2.89746 294 2.89746C293.656 2.89746 293.318 2.98605 293.019 3.15469C292.719 3.32332 292.468 3.56631 292.29 3.8602V3.8602Z" stroke="#252525" stroke-width="2" stroke-linecap="round" stroke-linejoin="round"/>
<path d="M294 9V13" stroke="#252525" stroke-width="2" stroke-linecap="round" stroke-linejoin="round"/>
<path d="M294 16V16.5" stroke="#252525" stroke-width="2" stroke-linecap="round" stroke-linejoin="round"/>
<path d="M479 22C479.552 22 480 21.5523 480 21C480 20.4477 479.552 20 479 20C478.448 20 478 20.4477 478 21C478 21.5523 478.448 22 479 22Z" stroke="#252525" stroke-width="2" stroke-linecap="round" stroke-linejoin="round"/>
<path d="M490 22C490.552 22 491 21.5523 491 21C491 20.4477 490.552 20 490 20C489.448 20 489 20.4477 489 21C489 21.5523 489.448 22 490 22Z" stroke="#252525" stroke-width="2" stroke-linecap="round" stroke-linejoin="round"/>
<path d="M471 1H475L477.68 14.39C477.771 14.8504 478.022 15.264 478.388 15.5583C478.753 15.8526 479.211 16.009 479.68 16H489.4C489.869 16.009 490.327 15.8526 490.692 15.5583C491.058 15.264 491.309 14.8504 491.4 14.39L493 6H476" stroke="#252525" stroke-width="2" stroke-linecap="round" stroke-linejoin="round"/>
<path d="M388 2L391.09 8.26L398 9.27L393 14.14L394.18 21.02L388 17.77L381.82 21.02L383 14.14L378 9.27L384.91 8.26L388 2Z" stroke="#252525" stroke-width="2" stroke-linecap="round" stroke-linejoin="round"/>
<path d="M677 4H663C661.895 4 661 4.89543 661 6V20C661 21.1046 661.895 22 663 22H677C678.105 22 679 21.1046 679 20V6C679 4.89543 678.105 4 677 4Z" stroke="#252525" stroke-width="2" stroke-linecap="round" stroke-linejoin="round"/>
<path d="M674 2V6" stroke="#252525" stroke-width="2" stroke-linecap="round" stroke-linejoin="round"/>
<path d="M666 2V6" stroke="#252525" stroke-width="2" stroke-linecap="round" stroke-linejoin="round"/>
<path d="M661 10H679" stroke="#252525" stroke-width="2" stroke-linecap="round" stroke-linejoin="round"/>
<path d="M206 96C206 94.4087 205.368 92.8826 204.243 91.7574C203.117 90.6321 201.591 90 200 90C198.409 90 196.883 90.6321 195.757 91.7574C194.632 92.8826 194 94.4087 194 96C194 103 191 105 191 105H209C209 105 206 103 206 96Z" stroke="#252525" stroke-width="2" stroke-linecap="round" stroke-linejoin="round"/>
<path d="M201.73 109C201.554 109.303 201.302 109.555 200.998 109.73C200.695 109.904 200.35 109.996 200 109.996C199.65 109.996 199.305 109.904 199.002 109.73C198.698 109.555 198.446 109.303 198.27 109" stroke="#252525" stroke-width="2" stroke-linecap="round" stroke-linejoin="round"/>
<path d="M210 11.0799V11.9999C209.999 14.1563 209.301 16.2545 208.009 17.9817C206.718 19.7088 204.903 20.9723 202.835 21.5838C200.767 22.1952 198.557 22.1218 196.534 21.3744C194.512 20.6271 192.785 19.246 191.611 17.4369C190.437 15.6279 189.88 13.4879 190.022 11.3362C190.164 9.18443 190.997 7.13619 192.398 5.49694C193.799 3.85768 195.693 2.71525 197.796 2.24001C199.9 1.76477 202.1 1.9822 204.07 2.85986" stroke="#252525" stroke-width="2" stroke-linecap="round" stroke-linejoin="round"/>
<path d="M210 4L200 14.01L197 11.01" stroke="#252525" stroke-width="2" stroke-linecap="round" stroke-linejoin="round"/>
<path d="M397 103V107C397 107.53 396.789 108.039 396.414 108.414C396.039 108.789 395.53 109 395 109H381C380.47 109 379.961 108.789 379.586 108.414C379.211 108.039 379 107.53 379 107V103" stroke="#252525" stroke-width="2" stroke-linecap="round" stroke-linejoin="round"/>
<path d="M383 98L388 103L393 98" stroke="#252525" stroke-width="2" stroke-linecap="round" stroke-linejoin="round"/>
<path d="M388 103V91" stroke="#252525" stroke-width="2" stroke-linecap="round" stroke-linejoin="round"/>
<path d="M11 92H4C3.46957 92 2.96086 92.2107 2.58579 92.5858C2.21071 92.9609 2 93.4696 2 94V108C2 108.53 2.21071 109.039 2.58579 109.414C2.96086 109.789 3.46957 110 4 110H18C18.5304 110 19.0391 109.789 19.4142 109.414C19.7893 109.039 20 108.53 20 108V101" stroke="#252525" stroke-width="2" stroke-linecap="round" stroke-linejoin="round"/>
<path d="M18.5 90.5002C18.8978 90.1024 19.4374 89.8789 20 89.8789C20.5626 89.8789 21.1022 90.1024 21.5 90.5002C21.8978 90.8981 22.1213 91.4376 22.1213 92.0002C22.1213 92.5628 21.8978 93.1024 21.5 93.5002L12 103L8 104L9 100L18.5 90.5002Z" stroke="#252525" stroke-width="2" stroke-linecap="round" stroke-linejoin="round"/>
<path d="M680 91H660L668 100.46V107L672 109V100.46L680 91Z" stroke="#252525" stroke-width="2" stroke-linecap="round" stroke-linejoin="round"/>
<path d="M586 100H580L578 103H574L572 100H566" stroke="#252525" stroke-width="2" stroke-linecap="round" stroke-linejoin="round"/>
<path d="M569.45 93.11L566 100V106C566 106.53 566.211 107.039 566.586 107.414C566.961 107.789 567.47 108 568 108H584C584.53 108 585.039 107.789 585.414 107.414C585.789 107.039 586 106.53 586 106V100L582.55 93.11C582.384 92.7768 582.129 92.4964 581.813 92.3003C581.497 92.1042 581.132 92.0002 580.76 92H571.24C570.868 92.0002 570.503 92.1042 570.187 92.3003C569.871 92.4964 569.616 92.7768 569.45 93.11V93.11Z" stroke="#252525" stroke-width="2" stroke-linecap="round" stroke-linejoin="round"/>
<g clip-path="url(#clip0)">
<path d="M298 104L294 100L290 104" stroke="#252525" stroke-width="2" stroke-linecap="round" stroke-linejoin="round"/>
<path d="M294 100V109" stroke="#252525" stroke-width="2" stroke-linecap="round" stroke-linejoin="round"/>
<path d="M302.39 106.39C303.365 105.859 304.136 105.017 304.58 103.999C305.024 102.981 305.116 101.844 304.842 100.767C304.568 99.6906 303.943 98.736 303.067 98.0539C302.19 97.3719 301.111 97.0012 300 97.0005H298.74C298.437 95.8297 297.873 94.7428 297.09 93.8215C296.307 92.9001 295.325 92.1683 294.218 91.6811C293.111 91.1938 291.909 90.9638 290.7 91.0084C289.492 91.0529 288.309 91.3708 287.241 91.9381C286.173 92.5055 285.248 93.3076 284.535 94.2841C283.821 95.2605 283.339 96.386 283.123 97.5759C282.907 98.7657 282.964 99.989 283.289 101.154C283.614 102.318 284.199 103.394 285 104.3" stroke="#252525" stroke-width="2" stroke-linecap="round" stroke-linejoin="round"/>
<path d="M298 104L294 100L290 104" stroke="#252525" stroke-width="2" stroke-linecap="round" stroke-linejoin="round"/>
</g>
<path d="M107 178L97 190H106L105 198L115 186H106L107 178Z" stroke="#252525" stroke-width="2" stroke-linecap="round" stroke-linejoin="round"/>
<path d="M584 197V195C584 193.939 583.579 192.922 582.828 192.172C582.078 191.421 581.061 191 580 191H572C570.939 191 569.922 191.421 569.172 192.172C568.421 192.922 568 193.939 568 195V197" stroke="#252525" stroke-width="2" stroke-linecap="round" stroke-linejoin="round"/>
<path d="M576 187C578.209 187 580 185.209 580 183C580 180.791 578.209 179 576 179C573.791 179 572 180.791 572 183C572 185.209 573.791 187 576 187Z" stroke="#252525" stroke-width="2" stroke-linecap="round" stroke-linejoin="round"/>
<path d="M481 195C485.418 195 489 191.418 489 187C489 182.582 485.418 179 481 179C476.582 179 473 182.582 473 187C473 191.418 476.582 195 481 195Z" stroke="#252525" stroke-width="2" stroke-linecap="round" stroke-linejoin="round"/>
<path d="M491 197L486.65 192.65" stroke="#252525" stroke-width="2" stroke-linecap="round" stroke-linejoin="round"/>
<path d="M98 96L106 104L114 96" stroke="#252525" stroke-width="2" stroke-linecap="round" stroke-linejoin="round"/>
<path d="M676 182L664 194" stroke="#252525" stroke-width="2" stroke-linecap="round" stroke-linejoin="round"/>
<path d="M664 182L676 194" stroke="#252525" stroke-width="2" stroke-linecap="round" stroke-linejoin="round"/>
<defs>
<clipPath id="clip0">
<rect width="24" height="24" fill="white" transform="translate(282 88)"/>
</clipPath>
</defs>
</svg>
