<svg width="636" height="242" viewBox="0 0 636 242" fill="none" xmlns="http://www.w3.org/2000/svg">
<path d="M7.375 100H1.63867V99.0215L4.48047 95.9219C4.89062 95.4648 5.18164 95.084 5.35352 94.7793C5.5293 94.4707 5.61719 94.1621 5.61719 93.8535C5.61719 93.4473 5.50195 93.1191 5.27148 92.8691C5.04492 92.6191 4.73828 92.4941 4.35156 92.4941C3.89062 92.4941 3.5332 92.6348 3.2793 92.916C3.02539 93.1973 2.89844 93.582 2.89844 94.0703H1.47461C1.47461 93.5508 1.5918 93.084 1.82617 92.6699C2.06445 92.252 2.40234 91.9277 2.83984 91.6973C3.28125 91.4668 3.78906 91.3516 4.36328 91.3516C5.19141 91.3516 5.84375 91.5605 6.32031 91.9785C6.80078 92.3926 7.04102 92.9668 7.04102 93.7012C7.04102 94.127 6.91992 94.5742 6.67773 95.043C6.43945 95.5078 6.04688 96.0371 5.5 96.6309L3.41406 98.8633H7.375V100ZM9.6475 100V91.4688H12.167C12.9209 91.4688 13.5889 91.6367 14.1709 91.9727C14.7569 92.3086 15.21 92.7852 15.5303 93.4023C15.8506 94.0195 16.0108 94.7266 16.0108 95.5234V95.9512C16.0108 96.7598 15.8487 97.4707 15.5245 98.084C15.2041 98.6973 14.7452 99.1699 14.1475 99.502C13.5538 99.834 12.8721 100 12.1026 100H9.6475ZM11.1299 92.6641V98.8164H12.0967C12.8741 98.8164 13.4698 98.5742 13.8838 98.0898C14.3018 97.6016 14.5147 96.9023 14.5225 95.9922V95.5176C14.5225 94.5918 14.3213 93.8848 13.919 93.3965C13.5166 92.9082 12.9327 92.6641 12.167 92.6641H11.1299ZM23.5919 93.7188C23.5919 94.1367 23.4845 94.5098 23.2696 94.8379C23.0548 95.1621 22.7618 95.418 22.3907 95.6055C22.836 95.8125 23.1778 96.0957 23.4161 96.4551C23.6583 96.8145 23.7794 97.2207 23.7794 97.6738C23.7794 98.4238 23.5255 99.0195 23.0177 99.4609C22.5098 99.8984 21.8341 100.117 20.9903 100.117C20.1427 100.117 19.463 99.8965 18.9513 99.4551C18.4434 99.0137 18.1895 98.4199 18.1895 97.6738C18.1895 97.2168 18.3106 96.8066 18.5528 96.4434C18.795 96.0801 19.1348 95.8008 19.5723 95.6055C19.2052 95.418 18.9141 95.1621 18.6993 94.8379C18.4884 94.5098 18.3829 94.1367 18.3829 93.7188C18.3829 92.9922 18.6173 92.416 19.086 91.9902C19.5548 91.5645 20.1876 91.3516 20.9845 91.3516C21.7852 91.3516 22.42 91.5645 22.8888 91.9902C23.3575 92.416 23.5919 92.9922 23.5919 93.7188ZM22.3555 97.6035C22.3555 97.1816 22.2286 96.8418 21.9747 96.584C21.7247 96.3223 21.3927 96.1914 20.9786 96.1914C20.5645 96.1914 20.2325 96.3203 19.9825 96.5781C19.7364 96.8359 19.6134 97.1777 19.6134 97.6035C19.6134 98.0215 19.7345 98.3555 19.9766 98.6055C20.2227 98.8555 20.5606 98.9805 20.9903 98.9805C21.42 98.9805 21.754 98.8594 21.9923 98.6172C22.2345 98.375 22.3555 98.0371 22.3555 97.6035ZM22.1739 93.7715C22.1739 93.4004 22.0665 93.0957 21.8516 92.8574C21.6368 92.6152 21.3477 92.4941 20.9845 92.4941C20.6212 92.4941 20.3341 92.6094 20.1231 92.8398C19.9122 93.0664 19.8067 93.377 19.8067 93.7715C19.8067 94.1621 19.9122 94.4727 20.1231 94.7031C20.338 94.9336 20.627 95.0488 20.9903 95.0488C21.3536 95.0488 21.6407 94.9336 21.8516 94.7031C22.0665 94.4727 22.1739 94.1621 22.1739 93.7715ZM26.2277 100V91.4688H29.1515C30.1163 91.4688 30.8507 91.6621 31.3546 92.0488C31.8585 92.4355 32.1105 93.0117 32.1105 93.7773C32.1105 94.168 32.005 94.5195 31.7941 94.832C31.5831 95.1445 31.2745 95.3867 30.8683 95.5586C31.3292 95.6836 31.6847 95.9199 31.9347 96.2676C32.1886 96.6113 32.3155 97.0254 32.3155 97.5098C32.3155 98.3105 32.0577 98.9258 31.5421 99.3555C31.0304 99.7852 30.296 100 29.339 100H26.2277ZM27.7101 96.1504V98.8164H29.3566C29.8214 98.8164 30.1847 98.7012 30.4464 98.4707C30.7081 98.2402 30.839 97.9199 30.839 97.5098C30.839 96.623 30.3859 96.1699 29.4796 96.1504H27.7101ZM27.7101 95.0605H29.1632C29.6241 95.0605 29.9835 94.957 30.2413 94.75C30.503 94.5391 30.6339 94.2422 30.6339 93.8594C30.6339 93.4375 30.5128 93.1328 30.2706 92.9453C30.0323 92.7578 29.6593 92.6641 29.1515 92.6641H27.7101V95.0605ZM34.758 100V91.4688H37.6818C38.6466 91.4688 39.381 91.6621 39.8849 92.0488C40.3888 92.4355 40.6408 93.0117 40.6408 93.7773C40.6408 94.168 40.5353 94.5195 40.3244 94.832C40.1134 95.1445 39.8048 95.3867 39.3986 95.5586C39.8595 95.6836 40.215 95.9199 40.465 96.2676C40.7189 96.6113 40.8459 97.0254 40.8459 97.5098C40.8459 98.3105 40.588 98.9258 40.0724 99.3555C39.5607 99.7852 38.8263 100 37.8693 100H34.758ZM36.2404 96.1504V98.8164H37.8869C38.3517 98.8164 38.715 98.7012 38.9767 98.4707C39.2384 98.2402 39.3693 97.9199 39.3693 97.5098C39.3693 96.623 38.9162 96.1699 38.0099 96.1504H36.2404ZM36.2404 95.0605H37.6935C38.1545 95.0605 38.5138 94.957 38.7716 94.75C39.0334 94.5391 39.1642 94.2422 39.1642 93.8594C39.1642 93.4375 39.0431 93.1328 38.8009 92.9453C38.5627 92.7578 38.1896 92.6641 37.6818 92.6641H36.2404V95.0605ZM48.0637 98.0137H44.759L44.0676 100H42.5266L45.7492 91.4688H47.0793L50.3078 100H48.7609L48.0637 98.0137ZM45.175 96.8184H47.6477L46.4113 93.2793L45.175 96.8184Z" fill="#707070"/>
<path d="M4.28516 234.084H5.15234C5.58984 234.08 5.93555 233.967 6.18945 233.744C6.44727 233.521 6.57617 233.199 6.57617 232.777C6.57617 232.371 6.46875 232.057 6.25391 231.834C6.04297 231.607 5.71875 231.494 5.28125 231.494C4.89844 231.494 4.58398 231.605 4.33789 231.828C4.0918 232.047 3.96875 232.334 3.96875 232.689H2.54492C2.54492 232.252 2.66016 231.854 2.89062 231.494C3.125 231.135 3.44922 230.855 3.86328 230.656C4.28125 230.453 4.74805 230.352 5.26367 230.352C6.11523 230.352 6.7832 230.566 7.26758 230.996C7.75586 231.422 8 232.016 8 232.777C8 233.16 7.87695 233.521 7.63086 233.861C7.38867 234.197 7.07422 234.451 6.6875 234.623C7.15625 234.783 7.51172 235.035 7.75391 235.379C8 235.723 8.12305 236.133 8.12305 236.609C8.12305 237.375 7.85938 237.984 7.33203 238.438C6.80859 238.891 6.11914 239.117 5.26367 239.117C4.44336 239.117 3.77148 238.898 3.24805 238.461C2.72461 238.023 2.46289 237.441 2.46289 236.715H3.88672C3.88672 237.09 4.01172 237.395 4.26172 237.629C4.51562 237.863 4.85547 237.98 5.28125 237.98C5.72266 237.98 6.07031 237.863 6.32422 237.629C6.57812 237.395 6.70508 237.055 6.70508 236.609C6.70508 236.16 6.57227 235.814 6.30664 235.572C6.04102 235.33 5.64648 235.209 5.12305 235.209H4.28516V234.084ZM10.6475 239V230.469H13.167C13.9209 230.469 14.5889 230.637 15.1709 230.973C15.7569 231.309 16.21 231.785 16.5303 232.402C16.8506 233.02 17.0108 233.727 17.0108 234.523V234.951C17.0108 235.76 16.8487 236.471 16.5245 237.084C16.2041 237.697 15.7452 238.17 15.1475 238.502C14.5538 238.834 13.8721 239 13.1026 239H10.6475ZM12.1299 231.664V237.816H13.0967C13.8741 237.816 14.4698 237.574 14.8838 237.09C15.3018 236.602 15.5147 235.902 15.5225 234.992V234.518C15.5225 233.592 15.3213 232.885 14.919 232.396C14.5166 231.908 13.9327 231.664 13.167 231.664H12.1299ZM23.6485 230.428V231.605H23.4727C22.6759 231.617 22.0391 231.836 21.5626 232.262C21.086 232.688 20.8028 233.291 20.713 234.072C21.17 233.592 21.754 233.352 22.4649 233.352C23.2188 233.352 23.8126 233.617 24.2462 234.148C24.6837 234.68 24.9024 235.365 24.9024 236.205C24.9024 237.072 24.6466 237.775 24.1348 238.314C23.627 238.85 22.9591 239.117 22.1309 239.117C21.2794 239.117 20.588 238.803 20.0567 238.174C19.5294 237.545 19.2657 236.721 19.2657 235.701V235.215C19.2657 233.719 19.629 232.547 20.3555 231.699C21.086 230.852 22.1348 230.428 23.502 230.428H23.6485ZM22.1192 234.5C21.8067 234.5 21.5196 234.588 21.2579 234.764C21.0001 234.939 20.8106 235.174 20.6895 235.467V235.9C20.6895 236.533 20.8223 237.037 21.088 237.412C21.3536 237.783 21.6973 237.969 22.1192 237.969C22.5411 237.969 22.8751 237.811 23.1212 237.494C23.3673 237.178 23.4903 236.762 23.4903 236.246C23.4903 235.73 23.3653 235.311 23.1153 234.986C22.8653 234.662 22.5333 234.5 22.1192 234.5ZM32.003 237.014H28.6984L28.007 239H26.4659L29.6886 230.469H31.0187L34.2472 239H32.7003L32.003 237.014ZM29.1144 235.818H31.587L30.3507 232.279L29.1144 235.818ZM36.1798 239V230.469H39.1037C40.0685 230.469 40.8029 230.662 41.3068 231.049C41.8107 231.436 42.0627 232.012 42.0627 232.777C42.0627 233.168 41.9572 233.52 41.7463 233.832C41.5353 234.145 41.2267 234.387 40.8205 234.559C41.2814 234.684 41.6369 234.92 41.8869 235.268C42.1408 235.611 42.2677 236.025 42.2677 236.51C42.2677 237.311 42.0099 237.926 41.4943 238.355C40.9826 238.785 40.2482 239 39.2912 239H36.1798ZM37.6623 235.15V237.816H39.3088C39.7736 237.816 40.1369 237.701 40.3986 237.471C40.6603 237.24 40.7912 236.92 40.7912 236.51C40.7912 235.623 40.338 235.17 39.4318 235.15H37.6623ZM37.6623 234.061H39.1154C39.5763 234.061 39.9357 233.957 40.1935 233.75C40.4552 233.539 40.5861 233.242 40.5861 232.859C40.5861 232.438 40.465 232.133 40.2228 231.945C39.9845 231.758 39.6115 231.664 39.1037 231.664H37.6623V234.061ZM49.6262 235.385H46.1926V239H44.7102V230.469H50.1301V231.664H46.1926V234.201H49.6262V235.385Z" fill="#707070"/>
<path d="M132.455 96.959H133.516V98.1016H132.455V100H131.031V98.1016H127.346L127.305 97.2344L130.984 91.4688H132.455V96.959ZM128.799 96.959H131.031V93.3965L130.926 93.584L128.799 96.959ZM135.648 100V91.4688H138.571C139.536 91.4688 140.271 91.6621 140.774 92.0488C141.278 92.4355 141.53 93.0117 141.53 93.7773C141.53 94.168 141.425 94.5195 141.214 94.832C141.003 95.1445 140.694 95.3867 140.288 95.5586C140.749 95.6836 141.105 95.9199 141.355 96.2676C141.608 96.6113 141.735 97.0254 141.735 97.5098C141.735 98.3105 141.478 98.9258 140.962 99.3555C140.45 99.7852 139.716 100 138.759 100H135.648ZM137.13 96.1504V98.8164H138.776C139.241 98.8164 139.605 98.7012 139.866 98.4707C140.128 98.2402 140.259 97.9199 140.259 97.5098C140.259 96.623 139.806 96.1699 138.899 96.1504H137.13ZM137.13 95.0605H138.583C139.044 95.0605 139.403 94.957 139.661 94.75C139.923 94.5391 140.054 94.2422 140.054 93.8594C140.054 93.4375 139.933 93.1328 139.69 92.9453C139.452 92.7578 139.079 92.6641 138.571 92.6641H137.13V95.0605ZM147.986 96.4316C147.51 96.9355 146.953 97.1875 146.316 97.1875C145.566 97.1875 144.969 96.9258 144.524 96.4023C144.078 95.875 143.856 95.1836 143.856 94.3281C143.856 93.7656 143.969 93.2559 144.195 92.7988C144.422 92.3418 144.744 91.9863 145.162 91.7324C145.58 91.4785 146.065 91.3516 146.615 91.3516C147.475 91.3516 148.156 91.6719 148.66 92.3125C149.164 92.9531 149.416 93.8105 149.416 94.8848V95.2832C149.416 96.8223 149.068 97.9961 148.373 98.8047C147.678 99.6133 146.641 100.023 145.262 100.035H145.092V98.8574H145.297C146.137 98.8457 146.781 98.6445 147.231 98.2539C147.68 97.8594 147.932 97.252 147.986 96.4316ZM146.615 96.0742C146.9 96.0742 147.168 95.9922 147.418 95.8281C147.668 95.6641 147.861 95.4375 147.998 95.1484V94.5918C147.998 93.9629 147.869 93.457 147.611 93.0742C147.354 92.6914 147.02 92.5 146.609 92.5C146.199 92.5 145.871 92.6699 145.625 93.0098C145.383 93.3457 145.262 93.7715 145.262 94.2871C145.262 94.8223 145.385 95.2539 145.631 95.582C145.877 95.9102 146.205 96.0742 146.615 96.0742ZM156.734 98.0137H153.429L152.737 100H151.196L154.419 91.4688H155.749L158.978 100H157.431L156.734 98.0137ZM153.845 96.8184H156.317L155.081 93.2793L153.845 96.8184ZM167.291 97.2227C167.205 98.1328 166.869 98.8438 166.283 99.3555C165.697 99.8633 164.918 100.117 163.945 100.117C163.266 100.117 162.666 99.957 162.147 99.6367C161.631 99.3125 161.233 98.8535 160.951 98.2598C160.67 97.666 160.524 96.9766 160.512 96.1914V95.3945C160.512 94.5898 160.654 93.8809 160.94 93.2676C161.225 92.6543 161.633 92.1816 162.164 91.8496C162.699 91.5176 163.317 91.3516 164.016 91.3516C164.957 91.3516 165.715 91.6074 166.289 92.1191C166.863 92.6309 167.197 93.3535 167.291 94.2871H165.815C165.744 93.6738 165.565 93.2324 165.276 92.9629C164.99 92.6895 164.57 92.5527 164.016 92.5527C163.371 92.5527 162.875 92.7891 162.528 93.2617C162.184 93.7305 162.008 94.4199 162 95.3301V96.0859C162 97.0078 162.164 97.7109 162.492 98.1953C162.824 98.6797 163.309 98.9219 163.945 98.9219C164.528 98.9219 164.965 98.791 165.258 98.5293C165.551 98.2676 165.736 97.832 165.815 97.2227H167.291ZM173.208 100H171.79V93.1504L169.698 93.8652V92.6641L173.027 91.4395H173.208V100Z" fill="#707070"/>
<path d="M129.02 234.77L129.482 230.469H134.064V231.699H130.666L130.432 233.738C130.826 233.512 131.271 233.398 131.768 233.398C132.58 233.398 133.211 233.658 133.66 234.178C134.113 234.697 134.34 235.396 134.34 236.275C134.34 237.143 134.09 237.834 133.59 238.35C133.09 238.861 132.404 239.117 131.533 239.117C130.752 239.117 130.104 238.896 129.588 238.455C129.076 238.01 128.799 237.424 128.756 236.697H130.133C130.188 237.111 130.336 237.43 130.578 237.652C130.82 237.871 131.137 237.98 131.527 237.98C131.965 237.98 132.305 237.824 132.547 237.512C132.793 237.199 132.916 236.773 132.916 236.234C132.916 235.715 132.781 235.305 132.512 235.004C132.242 234.699 131.871 234.547 131.398 234.547C131.141 234.547 130.922 234.582 130.742 234.652C130.562 234.719 130.367 234.852 130.156 235.051L129.02 234.77ZM143.157 236.223C143.071 237.133 142.735 237.844 142.149 238.355C141.564 238.863 140.784 239.117 139.812 239.117C139.132 239.117 138.532 238.957 138.013 238.637C137.497 238.312 137.099 237.854 136.817 237.26C136.536 236.666 136.39 235.977 136.378 235.191V234.395C136.378 233.59 136.521 232.881 136.806 232.268C137.091 231.654 137.499 231.182 138.03 230.85C138.565 230.518 139.183 230.352 139.882 230.352C140.823 230.352 141.581 230.607 142.155 231.119C142.73 231.631 143.064 232.354 143.157 233.287H141.681C141.61 232.674 141.431 232.232 141.142 231.963C140.856 231.689 140.437 231.553 139.882 231.553C139.237 231.553 138.741 231.789 138.394 232.262C138.05 232.73 137.874 233.42 137.866 234.33V235.086C137.866 236.008 138.03 236.711 138.358 237.195C138.69 237.68 139.175 237.922 139.812 237.922C140.394 237.922 140.831 237.791 141.124 237.529C141.417 237.268 141.603 236.832 141.681 236.223H143.157ZM150.592 232.719C150.592 233.137 150.484 233.51 150.27 233.838C150.055 234.162 149.762 234.418 149.391 234.605C149.836 234.812 150.178 235.096 150.416 235.455C150.658 235.814 150.779 236.221 150.779 236.674C150.779 237.424 150.525 238.02 150.018 238.461C149.51 238.898 148.834 239.117 147.99 239.117C147.143 239.117 146.463 238.896 145.951 238.455C145.443 238.014 145.19 237.42 145.19 236.674C145.19 236.217 145.311 235.807 145.553 235.443C145.795 235.08 146.135 234.801 146.572 234.605C146.205 234.418 145.914 234.162 145.699 233.838C145.488 233.51 145.383 233.137 145.383 232.719C145.383 231.992 145.617 231.416 146.086 230.99C146.555 230.564 147.188 230.352 147.984 230.352C148.785 230.352 149.42 230.564 149.889 230.99C150.358 231.416 150.592 231.992 150.592 232.719ZM149.356 236.604C149.356 236.182 149.229 235.842 148.975 235.584C148.725 235.322 148.393 235.191 147.979 235.191C147.565 235.191 147.233 235.32 146.983 235.578C146.736 235.836 146.613 236.178 146.613 236.604C146.613 237.021 146.734 237.355 146.977 237.605C147.223 237.855 147.561 237.98 147.99 237.98C148.42 237.98 148.754 237.859 148.992 237.617C149.234 237.375 149.356 237.037 149.356 236.604ZM149.174 232.771C149.174 232.4 149.066 232.096 148.852 231.857C148.637 231.615 148.348 231.494 147.984 231.494C147.621 231.494 147.334 231.609 147.123 231.84C146.912 232.066 146.807 232.377 146.807 232.771C146.807 233.162 146.912 233.473 147.123 233.703C147.338 233.934 147.627 234.049 147.99 234.049C148.354 234.049 148.641 233.934 148.852 233.703C149.066 233.473 149.174 233.162 149.174 232.771ZM156.855 239H155.437V232.15L153.345 232.865V231.664L156.673 230.439H156.855V239ZM167.518 236.223C167.432 237.133 167.096 237.844 166.51 238.355C165.924 238.863 165.145 239.117 164.172 239.117C163.492 239.117 162.893 238.957 162.373 238.637C161.858 238.312 161.459 237.854 161.178 237.26C160.897 236.666 160.75 235.977 160.738 235.191V234.395C160.738 233.59 160.881 232.881 161.166 232.268C161.451 231.654 161.86 231.182 162.391 230.85C162.926 230.518 163.543 230.352 164.242 230.352C165.184 230.352 165.942 230.607 166.516 231.119C167.09 231.631 167.424 232.354 167.518 233.287H166.041C165.971 232.674 165.791 232.232 165.502 231.963C165.217 231.689 164.797 231.553 164.242 231.553C163.598 231.553 163.102 231.789 162.754 232.262C162.41 232.73 162.235 233.42 162.227 234.33V235.086C162.227 236.008 162.391 236.711 162.719 237.195C163.051 237.68 163.535 237.922 164.172 237.922C164.754 237.922 165.192 237.791 165.485 237.529C165.778 237.268 165.963 236.832 166.041 236.223H167.518ZM173.616 235.432C173.14 235.936 172.583 236.188 171.946 236.188C171.196 236.188 170.599 235.926 170.154 235.402C169.708 234.875 169.486 234.184 169.486 233.328C169.486 232.766 169.599 232.256 169.825 231.799C170.052 231.342 170.374 230.986 170.792 230.732C171.21 230.479 171.695 230.352 172.245 230.352C173.105 230.352 173.786 230.672 174.29 231.312C174.794 231.953 175.046 232.811 175.046 233.885V234.283C175.046 235.822 174.698 236.996 174.003 237.805C173.308 238.613 172.271 239.023 170.892 239.035H170.722V237.857H170.927C171.767 237.846 172.411 237.645 172.861 237.254C173.31 236.859 173.562 236.252 173.616 235.432ZM172.245 235.074C172.53 235.074 172.798 234.992 173.048 234.828C173.298 234.664 173.491 234.438 173.628 234.148V233.592C173.628 232.963 173.499 232.457 173.241 232.074C172.984 231.691 172.65 231.5 172.239 231.5C171.829 231.5 171.501 231.67 171.255 232.01C171.013 232.346 170.892 232.771 170.892 233.287C170.892 233.822 171.015 234.254 171.261 234.582C171.507 234.91 171.835 235.074 172.245 235.074Z" fill="#707070"/>
<path d="M260.068 91.4277V92.6055H259.893C259.096 92.6172 258.459 92.8359 257.982 93.2617C257.506 93.6875 257.223 94.291 257.133 95.0723C257.59 94.5918 258.174 94.3516 258.885 94.3516C259.639 94.3516 260.232 94.6172 260.666 95.1484C261.104 95.6797 261.322 96.3652 261.322 97.2051C261.322 98.0723 261.066 98.7754 260.555 99.3145C260.047 99.8496 259.379 100.117 258.551 100.117C257.699 100.117 257.008 99.8027 256.477 99.1738C255.949 98.5449 255.686 97.7207 255.686 96.7012V96.2148C255.686 94.7188 256.049 93.5469 256.775 92.6992C257.506 91.8516 258.555 91.4277 259.922 91.4277H260.068ZM258.539 95.5C258.227 95.5 257.939 95.5879 257.678 95.7637C257.42 95.9395 257.23 96.1738 257.109 96.4668V96.9004C257.109 97.5332 257.242 98.0371 257.508 98.4121C257.773 98.7832 258.117 98.9688 258.539 98.9688C258.961 98.9688 259.295 98.8105 259.541 98.4941C259.787 98.1777 259.91 97.7617 259.91 97.2461C259.91 96.7305 259.785 96.3105 259.535 95.9863C259.285 95.6621 258.953 95.5 258.539 95.5ZM263.8 95.7695L264.263 91.4688H268.845V92.6992H265.446L265.212 94.7383C265.606 94.5117 266.052 94.3984 266.548 94.3984C267.36 94.3984 267.991 94.6582 268.44 95.1777C268.894 95.6973 269.12 96.3965 269.12 97.2754C269.12 98.1426 268.87 98.834 268.37 99.3496C267.87 99.8613 267.185 100.117 266.314 100.117C265.532 100.117 264.884 99.8965 264.368 99.4551C263.856 99.0098 263.579 98.4238 263.536 97.6973H264.913C264.968 98.1113 265.116 98.4297 265.358 98.6523C265.601 98.8711 265.917 98.9805 266.308 98.9805C266.745 98.9805 267.085 98.8242 267.327 98.5117C267.573 98.1992 267.696 97.7734 267.696 97.2344C267.696 96.7148 267.562 96.3047 267.292 96.0039C267.023 95.6992 266.651 95.5469 266.179 95.5469C265.921 95.5469 265.702 95.582 265.523 95.6523C265.343 95.7188 265.148 95.8516 264.937 96.0508L263.8 95.7695ZM276.203 98.0137H272.899L272.207 100H270.666L273.889 91.4688H275.219L278.447 100H276.9L276.203 98.0137ZM273.315 96.8184H275.787L274.551 93.2793L273.315 96.8184ZM285.296 96.3848H281.862V100H280.38V91.4688H285.8V92.6641H281.862V95.2012H285.296V96.3848ZM287.938 100V91.4688H290.457C291.211 91.4688 291.879 91.6367 292.461 91.9727C293.047 92.3086 293.5 92.7852 293.82 93.4023C294.141 94.0195 294.301 94.7266 294.301 95.5234V95.9512C294.301 96.7598 294.139 97.4707 293.815 98.084C293.494 98.6973 293.035 99.1699 292.438 99.502C291.844 99.834 291.162 100 290.393 100H287.938ZM289.42 92.6641V98.8164H290.387C291.164 98.8164 291.76 98.5742 292.174 98.0898C292.592 97.6016 292.805 96.9023 292.813 95.9922V95.5176C292.813 94.5918 292.611 93.8848 292.209 93.3965C291.807 92.9082 291.223 92.6641 290.457 92.6641H289.42ZM298.155 95.084H299.023C299.46 95.0801 299.806 94.9668 300.06 94.7441C300.318 94.5215 300.446 94.1992 300.446 93.7773C300.446 93.3711 300.339 93.0566 300.124 92.834C299.913 92.6074 299.589 92.4941 299.152 92.4941C298.769 92.4941 298.454 92.6055 298.208 92.8281C297.962 93.0469 297.839 93.334 297.839 93.6895H296.415C296.415 93.252 296.53 92.8535 296.761 92.4941C296.995 92.1348 297.32 91.8555 297.734 91.6562C298.152 91.4531 298.618 91.3516 299.134 91.3516C299.986 91.3516 300.654 91.5664 301.138 91.9961C301.626 92.4219 301.87 93.0156 301.87 93.7773C301.87 94.1602 301.747 94.5215 301.501 94.8613C301.259 95.1973 300.945 95.4512 300.558 95.623C301.027 95.7832 301.382 96.0352 301.624 96.3789C301.87 96.7227 301.993 97.1328 301.993 97.6094C301.993 98.375 301.73 98.9844 301.202 99.4375C300.679 99.8906 299.989 100.117 299.134 100.117C298.314 100.117 297.642 99.8984 297.118 99.4609C296.595 99.0234 296.333 98.4414 296.333 97.7148H297.757C297.757 98.0898 297.882 98.3945 298.132 98.6289C298.386 98.8633 298.726 98.9805 299.152 98.9805C299.593 98.9805 299.941 98.8633 300.195 98.6289C300.448 98.3945 300.575 98.0547 300.575 97.6094C300.575 97.1602 300.443 96.8145 300.177 96.5723C299.911 96.3301 299.517 96.209 298.993 96.209H298.155V95.084Z" fill="#707070"/>
<path d="M262.012 232.719C262.012 233.137 261.904 233.51 261.689 233.838C261.475 234.162 261.182 234.418 260.811 234.605C261.256 234.812 261.598 235.096 261.836 235.455C262.078 235.814 262.199 236.221 262.199 236.674C262.199 237.424 261.945 238.02 261.438 238.461C260.93 238.898 260.254 239.117 259.41 239.117C258.562 239.117 257.883 238.896 257.371 238.455C256.863 238.014 256.609 237.42 256.609 236.674C256.609 236.217 256.73 235.807 256.973 235.443C257.215 235.08 257.555 234.801 257.992 234.605C257.625 234.418 257.334 234.162 257.119 233.838C256.908 233.51 256.803 233.137 256.803 232.719C256.803 231.992 257.037 231.416 257.506 230.99C257.975 230.564 258.607 230.352 259.404 230.352C260.205 230.352 260.84 230.564 261.309 230.99C261.777 231.416 262.012 231.992 262.012 232.719ZM260.775 236.604C260.775 236.182 260.648 235.842 260.395 235.584C260.145 235.322 259.812 235.191 259.398 235.191C258.984 235.191 258.652 235.32 258.402 235.578C258.156 235.836 258.033 236.178 258.033 236.604C258.033 237.021 258.154 237.355 258.396 237.605C258.643 237.855 258.98 237.98 259.41 237.98C259.84 237.98 260.174 237.859 260.412 237.617C260.654 237.375 260.775 237.037 260.775 236.604ZM260.594 232.771C260.594 232.4 260.486 232.096 260.271 231.857C260.057 231.615 259.768 231.494 259.404 231.494C259.041 231.494 258.754 231.609 258.543 231.84C258.332 232.066 258.227 232.377 258.227 232.771C258.227 233.162 258.332 233.473 258.543 233.703C258.758 233.934 259.047 234.049 259.41 234.049C259.773 234.049 260.061 233.934 260.271 233.703C260.486 233.473 260.594 233.162 260.594 232.771ZM268.456 235.432C267.98 235.936 267.423 236.188 266.786 236.188C266.036 236.188 265.439 235.926 264.993 235.402C264.548 234.875 264.325 234.184 264.325 233.328C264.325 232.766 264.439 232.256 264.665 231.799C264.892 231.342 265.214 230.986 265.632 230.732C266.05 230.479 266.534 230.352 267.085 230.352C267.944 230.352 268.626 230.672 269.13 231.312C269.634 231.953 269.886 232.811 269.886 233.885V234.283C269.886 235.822 269.538 236.996 268.843 237.805C268.148 238.613 267.11 239.023 265.731 239.035H265.562V237.857H265.767C266.606 237.846 267.251 237.645 267.7 237.254C268.149 236.859 268.401 236.252 268.456 235.432ZM267.085 235.074C267.37 235.074 267.638 234.992 267.888 234.828C268.138 234.664 268.331 234.438 268.468 234.148V233.592C268.468 232.963 268.339 232.457 268.081 232.074C267.823 231.691 267.489 231.5 267.079 231.5C266.669 231.5 266.341 231.67 266.095 232.01C265.853 232.346 265.731 232.771 265.731 233.287C265.731 233.822 265.855 234.254 266.101 234.582C266.347 234.91 266.675 235.074 267.085 235.074ZM277.203 237.014H273.899L273.207 239H271.666L274.889 230.469H276.219L279.447 239H277.9L277.203 237.014ZM274.315 235.818H276.787L275.551 232.279L274.315 235.818ZM281.532 234.77L281.995 230.469H286.577V231.699H283.179L282.944 233.738C283.339 233.512 283.784 233.398 284.28 233.398C285.093 233.398 285.724 233.658 286.173 234.178C286.626 234.697 286.853 235.396 286.853 236.275C286.853 237.143 286.603 237.834 286.103 238.35C285.603 238.861 284.917 239.117 284.046 239.117C283.265 239.117 282.616 238.896 282.101 238.455C281.589 238.01 281.312 237.424 281.269 236.697H282.646C282.7 237.111 282.849 237.43 283.091 237.652C283.333 237.871 283.65 237.98 284.04 237.98C284.478 237.98 284.817 237.824 285.06 237.512C285.306 237.199 285.429 236.773 285.429 236.234C285.429 235.715 285.294 235.305 285.025 235.004C284.755 234.699 284.384 234.547 283.911 234.547C283.653 234.547 283.435 234.582 283.255 234.652C283.075 234.719 282.88 234.852 282.669 235.051L281.532 234.77ZM289.16 239V230.469H291.68C292.434 230.469 293.102 230.637 293.684 230.973C294.27 231.309 294.723 231.785 295.043 232.402C295.363 233.02 295.524 233.727 295.524 234.523V234.951C295.524 235.76 295.361 236.471 295.037 237.084C294.717 237.697 294.258 238.17 293.66 238.502C293.067 238.834 292.385 239 291.615 239H289.16ZM290.643 231.664V237.816H291.61C292.387 237.816 292.983 237.574 293.397 237.09C293.815 236.602 294.028 235.902 294.035 234.992V234.518C294.035 233.592 293.834 232.885 293.432 232.396C293.029 231.908 292.445 231.664 291.68 231.664H290.643ZM297.96 239V230.469H300.884C301.849 230.469 302.583 230.662 303.087 231.049C303.591 231.436 303.843 232.012 303.843 232.777C303.843 233.168 303.737 233.52 303.527 233.832C303.316 234.145 303.007 234.387 302.601 234.559C303.062 234.684 303.417 234.92 303.667 235.268C303.921 235.611 304.048 236.025 304.048 236.51C304.048 237.311 303.79 237.926 303.275 238.355C302.763 238.785 302.029 239 301.071 239H297.96ZM299.443 235.15V237.816H301.089C301.554 237.816 301.917 237.701 302.179 237.471C302.441 237.24 302.571 236.92 302.571 236.51C302.571 235.623 302.118 235.17 301.212 235.15H299.443ZM299.443 234.061H300.896C301.357 234.061 301.716 233.957 301.974 233.75C302.236 233.539 302.366 233.242 302.366 232.859C302.366 232.438 302.245 232.133 302.003 231.945C301.765 231.758 301.392 231.664 300.884 231.664H299.443V234.061Z" fill="#707070"/>
<path d="M386.316 92.2598L382.906 100H381.412L384.816 92.6113H380.404V91.4688H386.316V92.2598ZM393.423 98.0137H390.118L389.427 100H387.886L391.108 91.4688H392.439L395.667 100H394.12L393.423 98.0137ZM390.534 96.8184H393.007L391.771 93.2793L390.534 96.8184ZM403.981 97.2227C403.895 98.1328 403.559 98.8438 402.973 99.3555C402.387 99.8633 401.608 100.117 400.635 100.117C399.955 100.117 399.356 99.957 398.836 99.6367C398.32 99.3125 397.922 98.8535 397.641 98.2598C397.359 97.666 397.213 96.9766 397.201 96.1914V95.3945C397.201 94.5898 397.344 93.8809 397.629 93.2676C397.914 92.6543 398.322 92.1816 398.854 91.8496C399.389 91.5176 400.006 91.3516 400.705 91.3516C401.647 91.3516 402.404 91.6074 402.979 92.1191C403.553 92.6309 403.887 93.3535 403.981 94.2871H402.504C402.434 93.6738 402.254 93.2324 401.965 92.9629C401.68 92.6895 401.26 92.5527 400.705 92.5527C400.061 92.5527 399.565 92.7891 399.217 93.2617C398.873 93.7305 398.697 94.4199 398.69 95.3301V96.0859C398.69 97.0078 398.854 97.7109 399.182 98.1953C399.514 98.6797 399.998 98.9219 400.635 98.9219C401.217 98.9219 401.654 98.791 401.947 98.5293C402.24 98.2676 402.426 97.832 402.504 97.2227H403.981ZM410.079 96.4316C409.603 96.9355 409.046 97.1875 408.409 97.1875C407.659 97.1875 407.062 96.9258 406.616 96.4023C406.171 95.875 405.948 95.1836 405.948 94.3281C405.948 93.7656 406.062 93.2559 406.288 92.7988C406.515 92.3418 406.837 91.9863 407.255 91.7324C407.673 91.4785 408.157 91.3516 408.708 91.3516C409.567 91.3516 410.249 91.6719 410.753 92.3125C411.257 92.9531 411.509 93.8105 411.509 94.8848V95.2832C411.509 96.8223 411.161 97.9961 410.466 98.8047C409.771 99.6133 408.734 100.023 407.355 100.035H407.185V98.8574H407.39C408.23 98.8457 408.874 98.6445 409.323 98.2539C409.773 97.8594 410.025 97.252 410.079 96.4316ZM408.708 96.0742C408.993 96.0742 409.261 95.9922 409.511 95.8281C409.761 95.6641 409.954 95.4375 410.091 95.1484V94.5918C410.091 93.9629 409.962 93.457 409.704 93.0742C409.446 92.6914 409.112 92.5 408.702 92.5C408.292 92.5 407.964 92.6699 407.718 93.0098C407.476 93.3457 407.355 93.7715 407.355 94.2871C407.355 94.8223 407.478 95.2539 407.724 95.582C407.97 95.9102 408.298 96.0742 408.708 96.0742ZM418.967 96.3848H415.533V100H414.051V91.4688H419.471V92.6641H415.533V95.2012H418.967V96.3848ZM426.941 96.4082C426.941 97.6348 426.71 98.5605 426.249 99.1855C425.792 99.8066 425.095 100.117 424.157 100.117C423.236 100.117 422.54 99.8145 422.071 99.209C421.607 98.5996 421.368 97.6992 421.357 96.5078V95.0312C421.357 93.8047 421.585 92.8848 422.042 92.2715C422.503 91.6582 423.204 91.3516 424.146 91.3516C425.079 91.3516 425.775 91.6504 426.232 92.248C426.693 92.8457 426.929 93.7402 426.941 94.9316V96.4082ZM425.517 94.8145C425.517 94.0137 425.407 93.4277 425.189 93.0566C424.97 92.6816 424.622 92.4941 424.146 92.4941C423.681 92.4941 423.339 92.6719 423.12 93.0273C422.902 93.3789 422.786 93.9297 422.775 94.6797V96.6133C422.775 97.4102 422.886 98.0039 423.109 98.3945C423.331 98.7852 423.681 98.9805 424.157 98.9805C424.614 98.9805 424.952 98.8008 425.171 98.4414C425.39 98.0781 425.505 97.5117 425.517 96.7422V94.8145Z" fill="#707070"/>
<path d="M381.867 239V230.469H384.791C385.756 230.469 386.49 230.662 386.994 231.049C387.498 231.436 387.75 232.012 387.75 232.777C387.75 233.168 387.645 233.52 387.434 233.832C387.223 234.145 386.914 234.387 386.508 234.559C386.969 234.684 387.324 234.92 387.574 235.268C387.828 235.611 387.955 236.025 387.955 236.51C387.955 237.311 387.697 237.926 387.182 238.355C386.67 238.785 385.936 239 384.979 239H381.867ZM383.35 235.15V237.816H384.996C385.461 237.816 385.824 237.701 386.086 237.471C386.348 237.24 386.479 236.92 386.479 236.51C386.479 235.623 386.025 235.17 385.119 235.15H383.35ZM383.35 234.061H384.803C385.264 234.061 385.623 233.957 385.881 233.75C386.143 233.539 386.273 233.242 386.273 232.859C386.273 232.438 386.152 232.133 385.91 231.945C385.672 231.758 385.299 231.664 384.791 231.664H383.35V234.061ZM395.847 231.26L392.437 239H390.942L394.347 231.611H389.935V230.469H395.847V231.26ZM404.688 236.223C404.602 237.133 404.266 237.844 403.68 238.355C403.094 238.863 402.315 239.117 401.342 239.117C400.662 239.117 400.063 238.957 399.543 238.637C399.027 238.312 398.629 237.854 398.348 237.26C398.066 236.666 397.92 235.977 397.908 235.191V234.395C397.908 233.59 398.051 232.881 398.336 232.268C398.621 231.654 399.029 231.182 399.561 230.85C400.096 230.518 400.713 230.352 401.412 230.352C402.354 230.352 403.111 230.607 403.686 231.119C404.26 231.631 404.594 232.354 404.688 233.287H403.211C403.141 232.674 402.961 232.232 402.672 231.963C402.387 231.689 401.967 231.553 401.412 231.553C400.768 231.553 400.272 231.789 399.924 232.262C399.58 232.73 399.404 233.42 399.397 234.33V235.086C399.397 236.008 399.561 236.711 399.889 237.195C400.221 237.68 400.705 237.922 401.342 237.922C401.924 237.922 402.361 237.791 402.654 237.529C402.947 237.268 403.133 236.832 403.211 236.223H404.688ZM410.786 235.432C410.31 235.936 409.753 236.188 409.116 236.188C408.366 236.188 407.769 235.926 407.323 235.402C406.878 234.875 406.655 234.184 406.655 233.328C406.655 232.766 406.769 232.256 406.995 231.799C407.222 231.342 407.544 230.986 407.962 230.732C408.38 230.479 408.864 230.352 409.415 230.352C410.275 230.352 410.956 230.672 411.46 231.312C411.964 231.953 412.216 232.811 412.216 233.885V234.283C412.216 235.822 411.868 236.996 411.173 237.805C410.478 238.613 409.441 239.023 408.062 239.035H407.892V237.857H408.097C408.937 237.846 409.581 237.645 410.03 237.254C410.48 236.859 410.732 236.252 410.786 235.432ZM409.415 235.074C409.7 235.074 409.968 234.992 410.218 234.828C410.468 234.664 410.661 234.438 410.798 234.148V233.592C410.798 232.963 410.669 232.457 410.411 232.074C410.153 231.691 409.819 231.5 409.409 231.5C408.999 231.5 408.671 231.67 408.425 232.01C408.183 232.346 408.062 232.771 408.062 233.287C408.062 233.822 408.185 234.254 408.431 234.582C408.677 234.91 409.005 235.074 409.415 235.074ZM419.744 235.191H416.24V237.816H420.336V239H414.758V230.469H420.295V231.664H416.24V234.02H419.744V235.191ZM422.503 239V230.469H425.023C425.777 230.469 426.445 230.637 427.027 230.973C427.612 231.309 428.066 231.785 428.386 232.402C428.706 233.02 428.866 233.727 428.866 234.523V234.951C428.866 235.76 428.704 236.471 428.38 237.084C428.06 237.697 427.601 238.17 427.003 238.502C426.409 238.834 425.728 239 424.958 239H422.503ZM423.986 231.664V237.816H424.952C425.73 237.816 426.325 237.574 426.739 237.09C427.157 236.602 427.37 235.902 427.378 234.992V234.518C427.378 233.592 427.177 232.885 426.775 232.396C426.372 231.908 425.788 231.664 425.023 231.664H423.986Z" fill="#707070"/>
<path d="M508.867 100V91.4688H511.791C512.756 91.4688 513.49 91.6621 513.994 92.0488C514.498 92.4355 514.75 93.0117 514.75 93.7773C514.75 94.168 514.645 94.5195 514.434 94.832C514.223 95.1445 513.914 95.3867 513.508 95.5586C513.969 95.6836 514.324 95.9199 514.574 96.2676C514.828 96.6113 514.955 97.0254 514.955 97.5098C514.955 98.3105 514.697 98.9258 514.182 99.3555C513.67 99.7852 512.936 100 511.979 100H508.867ZM510.35 96.1504V98.8164H511.996C512.461 98.8164 512.824 98.7012 513.086 98.4707C513.348 98.2402 513.479 97.9199 513.479 97.5098C513.479 96.623 513.025 96.1699 512.119 96.1504H510.35ZM510.35 95.0605H511.803C512.264 95.0605 512.623 94.957 512.881 94.75C513.143 94.5391 513.273 94.2422 513.273 93.8594C513.273 93.4375 513.152 93.1328 512.91 92.9453C512.672 92.7578 512.299 92.6641 511.791 92.6641H510.35V95.0605ZM521.024 100H519.606V93.1504L517.515 93.8652V92.6641L520.843 91.4395H521.024V100ZM530.164 96.1914H526.66V98.8164H530.756V100H525.178V91.4688H530.715V92.6641H526.66V95.0195H530.164V96.1914ZM533.075 95.7695L533.538 91.4688H538.12V92.6992H534.722L534.487 94.7383C534.882 94.5117 535.327 94.3984 535.823 94.3984C536.636 94.3984 537.267 94.6582 537.716 95.1777C538.169 95.6973 538.396 96.3965 538.396 97.2754C538.396 98.1426 538.146 98.834 537.646 99.3496C537.146 99.8613 536.46 100.117 535.589 100.117C534.808 100.117 534.159 99.8965 533.644 99.4551C533.132 99.0098 532.855 98.4238 532.812 97.6973H534.189C534.243 98.1113 534.392 98.4297 534.634 98.6523C534.876 98.8711 535.192 98.9805 535.583 98.9805C536.021 98.9805 536.36 98.8242 536.603 98.5117C536.849 98.1992 536.972 97.7734 536.972 97.2344C536.972 96.7148 536.837 96.3047 536.567 96.0039C536.298 95.6992 535.927 95.5469 535.454 95.5469C535.196 95.5469 534.978 95.582 534.798 95.6523C534.618 95.7188 534.423 95.8516 534.212 96.0508L533.075 95.7695ZM545.619 96.3848H542.186V100H540.703V91.4688H546.123V92.6641H542.186V95.2012H545.619V96.3848ZM553.177 96.3848H549.743V100H548.261V91.4688H553.681V92.6641H549.743V95.2012H553.177V96.3848Z" fill="#707070"/>
<path d="M514.854 235.191H511.35V237.816H515.445V239H509.867V230.469H515.404V231.664H511.35V234.02H514.854V235.191ZM521.239 239H519.821V232.15L517.73 232.865V231.664L521.058 230.439H521.239V239ZM530.379 235.191H526.875V237.816H530.971V239H525.393V230.469H530.93V231.664H526.875V234.02H530.379V235.191ZM536.946 235.432C536.47 235.936 535.913 236.188 535.276 236.188C534.526 236.188 533.929 235.926 533.484 235.402C533.038 234.875 532.816 234.184 532.816 233.328C532.816 232.766 532.929 232.256 533.155 231.799C533.382 231.342 533.704 230.986 534.122 230.732C534.54 230.479 535.025 230.352 535.575 230.352C536.435 230.352 537.116 230.672 537.62 231.312C538.124 231.953 538.376 232.811 538.376 233.885V234.283C538.376 235.822 538.028 236.996 537.333 237.805C536.638 238.613 535.601 239.023 534.222 239.035H534.052V237.857H534.257C535.097 237.846 535.741 237.645 536.191 237.254C536.64 236.859 536.892 236.252 536.946 235.432ZM535.575 235.074C535.86 235.074 536.128 234.992 536.378 234.828C536.628 234.664 536.821 234.438 536.958 234.148V233.592C536.958 232.963 536.829 232.457 536.571 232.074C536.314 231.691 535.98 231.5 535.569 231.5C535.159 231.5 534.831 231.67 534.585 232.01C534.343 232.346 534.222 232.771 534.222 233.287C534.222 233.822 534.345 234.254 534.591 234.582C534.837 234.91 535.165 235.074 535.575 235.074ZM545.834 235.385H542.401V239H540.918V230.469H546.338V231.664H542.401V234.201H545.834V235.385ZM553.62 232.719C553.62 233.137 553.513 233.51 553.298 233.838C553.083 234.162 552.79 234.418 552.419 234.605C552.864 234.812 553.206 235.096 553.445 235.455C553.687 235.814 553.808 236.221 553.808 236.674C553.808 237.424 553.554 238.02 553.046 238.461C552.538 238.898 551.862 239.117 551.019 239.117C550.171 239.117 549.491 238.896 548.98 238.455C548.472 238.014 548.218 237.42 548.218 236.674C548.218 236.217 548.339 235.807 548.581 235.443C548.823 235.08 549.163 234.801 549.601 234.605C549.234 234.418 548.943 234.162 548.728 233.838C548.517 233.51 548.411 233.137 548.411 232.719C548.411 231.992 548.646 231.416 549.114 230.99C549.583 230.564 550.216 230.352 551.013 230.352C551.814 230.352 552.448 230.564 552.917 230.99C553.386 231.416 553.62 231.992 553.62 232.719ZM552.384 236.604C552.384 236.182 552.257 235.842 552.003 235.584C551.753 235.322 551.421 235.191 551.007 235.191C550.593 235.191 550.261 235.32 550.011 235.578C549.765 235.836 549.642 236.178 549.642 236.604C549.642 237.021 549.763 237.355 550.005 237.605C550.251 237.855 550.589 237.98 551.019 237.98C551.448 237.98 551.782 237.859 552.021 237.617C552.263 237.375 552.384 237.037 552.384 236.604ZM552.202 232.771C552.202 232.4 552.095 232.096 551.88 231.857C551.665 231.615 551.376 231.494 551.013 231.494C550.65 231.494 550.362 231.609 550.152 231.84C549.941 232.066 549.835 232.377 549.835 232.771C549.835 233.162 549.941 233.473 550.152 233.703C550.366 233.934 550.655 234.049 551.019 234.049C551.382 234.049 551.669 233.934 551.88 233.703C552.095 233.473 552.202 233.162 552.202 232.771Z" fill="#707070"/>
<rect width="127" height="54" fill="#2D8BBA"/>
<rect x="1" y="139" width="127" height="54" fill="#3D6ABF"/>
<rect x="127" width="128" height="54" fill="#4B9AC1"/>
<rect x="128" y="139" width="128" height="54" fill="#5C81C9"/>
<rect x="255" width="125" height="54" fill="#65AFD3"/>
<rect x="256" y="139" width="125" height="54" fill="#89A5DB"/>
<rect x="380" width="128" height="54" fill="#7AC9F0"/>
<rect x="381" y="139" width="128" height="54" fill="#B7C9ED"/>
<rect x="508" width="127" height="54" fill="#B1E5FF"/>
<rect x="509" y="139" width="127" height="54" fill="#E1E9F8"/>
</svg>
